<svg width="512" height="512" viewBox="0 0 512 512" xmlns="http://www.w3.org/2000/svg">
  <defs>
    <linearGradient id="grad-bg" x1="0%" y1="0%" x2="100%" y2="100%">
      <stop offset="0%" style="stop-color:#f0f2f5;stop-opacity:1" />
      <stop offset="100%" style="stop-color:#d9e1e8;stop-opacity:1" />
    </linearGradient>
    <linearGradient id="grad-turbo" x1="0%" y1="0%" x2="100%" y2="100%">
      <stop offset="0%" style="stop-color:#ff9a44;stop-opacity:1" />
      <stop offset="100%" style="stop-color:#ff4a3d;stop-opacity:1" />
    </linearGradient>
    <filter id="glow" x="-20%" y="-20%" width="140%" height="140%">
      <feGaussianBlur in="SourceGraphic" stdDeviation="5" />
    </filter>
  </defs>

  <rect x="24" y="24" width="464" height="464" rx="64" fill="url(#grad-bg)" stroke="#bdc3c7" stroke-width="8"/>

  <g transform="translate(144, 160)">
    <rect x="0" y="0" width="224" height="240" rx="16" fill="#ecf0f1" stroke="#95a5a6" stroke-width="6"/>
    <rect x="48" y="32" width="128" height="80" rx="4" fill="#bdc3c7" stroke="#7f8c8d" stroke-width="4"/>
    <rect x="56" y="40" width="112" height="64" rx="2" fill="#34495e" opacity="0.8"/>
    <g transform="translate(64, 128)">
      <rect x="32" y="0" width="32" height="32" rx="4" fill="#95a5a6"/> <rect x="32" y="64" width="32" height="32" rx="4" fill="#95a5a6"/> <rect x="0" y="32" width="32" height="32" rx="4" fill="#95a5a6"/> <rect x="64" y="32" width="32" height="32" rx="4" fill="#95a5a6"/> <rect x="32" y="32" width="32" height="32" rx="8" fill="#7f8c8d"/> </g>
    <g transform="translate(16, 216)">
      <rect x="0" y="0" width="40" height="16" rx="4" fill="#95a5a6"/>
      <rect x="51" y="0" width="40" height="16" rx="4" fill="#95a5a6"/>
      <rect x="102" y="0" width="40" height="16" rx="4" fill="#95a5a6"/>
      <rect x="153" y="0" width="40" height="16" rx="4" fill="#95a5a6"/>
    </g>
  </g>

  <g transform="translate(144, 80)">
    <path d="M0,16 C0,7.163 7.163,0 16,0 L208,0 C216.837,0 224,7.163 224,16 L224,64 L192,64 C183.163,64 176,71.163 176,80 L176,96 L48,96 L48,80 C48,71.163 40.837,64 32,64 L0,64 L0,16 Z" fill="url(#grad-turbo)" stroke="#c0392b" stroke-width="4"/>
    <g transform="translate(88, 16)">
        <circle cx="24" cy="24" r="20" fill="#ffe066" filter="url(#glow)" opacity="0.6"/>
        <path d="M24,8 C15.16,8 8,15.16 8,24 C8,32.84 15.16,40 24,40 C30.2,40 35.55,36.4 38.25,31.2 L34.3,29.3 C32.35,32.9 28.5,35.2 24,35.2 C17.8,35.2 12.8,30.2 12.8,24 C12.8,17.8 17.8,12.8 24,12.8 C27.1,12.8 29.9,14 32,16 L36.8,11.2 C33.4,8.6 29,7.2 24,7.2 L24,8 Z M36,16 L36,28 L40,28 L40,16 L36,16 Z" fill="#fff6cc"/>
    </g>
    <text x="140" y="40" font-family="sans-serif" font-size="20" font-weight="bold" fill="#fff6cc" text-anchor="middle">TURBO</text>
    <text x="140" y="60" font-family="sans-serif" font-size="14" font-weight="bold" fill="#fff6cc" text-anchor="middle">EXTENSION</text>
  </g>

  <g stroke="#7f8c8d" stroke-width="6" fill="none">
    <path d="M144,280 C100,280 100,360 64,360" />
    <g transform="translate(32, 344)">
      <rect x="0" y="0" width="48" height="64" rx="8" fill="#3498db" stroke="#2980b9" stroke-width="4"/>
      <circle cx="24" cy="32" r="16" fill="#bdc3c7"/>
      <rect x="16" y="56" width="16" height="16" fill="#95a5a6"/>
    </g>

    <path d="M368,280 C412,280 412,360 448,360" />
    <g transform="translate(416, 336)">
      <rect x="0" y="0" width="64" height="40" rx="8" fill="#e74c3c" stroke="#c0392b" stroke-width="4"/>
      <circle cx="16" cy="20" r="10" fill="#34495e"/>
      <circle cx="48" cy="20" r="10" fill="#34495e"/>
    </g>

    <path d="M256,400 L256,432" />
    <g transform="translate(224, 432)">
        <path d="M32,0 L38.5,6.5 L47.7,4.7 L52.5,12.9 L44.6,18.1 L47.3,27 L56.5,27 L56.5,37 L47.3,37 L44.6,45.9 L52.5,51.1 L47.7,59.3 L38.5,57.5 L32,64 L25.5,57.5 L16.3,59.3 L11.5,51.1 L19.4,45.9 L16.7,37 L7.5,37 L7.5,27 L16.7,27 L19.4,18.1 L11.5,12.9 L16.3,4.7 L25.5,6.5 L32,0 Z M32,16 C23.2,16 16,23.2 16,32 C16,40.8 23.2,48 32,48 C40.8,48 48,40.8 48,32 C48,23.2 40.8,16 32,16 Z" fill="#f1c40f" stroke="#d4ac0d" stroke-width="4"/>
    </g>
  </g>

</svg>