<svg width="40" height="40" viewBox="0 0 40 40" xmlns="http://www.w3.org/2000/svg">
  <title>Cool LEGO Boost TurboWarp Icon</title>
  
  <defs>
    <filter id="neonGlow" x="-20%" y="-20%" width="140%" height="140%">
      <feGaussianBlur stdDeviation="0.5" result="coloredBlur"/>
      <feMerge>
        <feMergeNode in="coloredBlur"/>
        <feMergeNode in="SourceGraphic"/>
      </feMerge>
    </filter>
  </defs>

  <g fill="none" fill-rule="evenodd">
    <path stroke="#00FFFF" stroke-width="1.2" fill="#2A3B4C" stroke-linecap="round" stroke-linejoin="round" d="M2 12h36v16H2z" filter="url(#neonGlow)"/>
    
    <path stroke="#00FFFF" fill="#00FFFF" stroke-linecap="round" stroke-linejoin="round" d="M16 12v2h1v-1h2v1h1v-2z" opacity="0.8"/>
    <path d="M14.5 12H22" stroke="#00FFFF" stroke-linecap="square" filter="url(#neonGlow)"/>

    <path stroke="#00FFFF" stroke-width="1.2" fill="#1E2A38" stroke-linecap="round" stroke-linejoin="round" d="M2 19h9l3 3h6v4H2z" filter="url(#neonGlow)"/>
    <path stroke="#00FFFF" fill="#00FFFF" opacity="0.3" d="M2 26h36v2H2z"/>

    <circle fill="#FF3300" cx="5.5" cy="22.5" r="2" filter="url(#neonGlow)">
        <animate attributeName="opacity" values="1;0.7;1" dur="2s" repeatCount="indefinite"/>
    </circle>

    <circle stroke="#00FFFF" fill="#2A3B4C" cx="22" cy="24" r="1.5" filter="url(#neonGlow)"/>

    <g transform="translate(28, 17)">
        <path d="M 6 0 L 0 7 L 4 7 L 2 13 L 10 5 L 5 5 Z" fill="#FFD700" stroke="#FF8C00" stroke-width="0.5" stroke-linejoin="round" filter="url(#neonGlow)"/>
    </g>
    
    <g stroke="#00FFFF" stroke-width="1" stroke-linecap="round">
      <path d="M4 12v-1M6 12v-1M8 12v-1M10 12v-1M12 12v-1M30 12v-1M32 12v-1M34 12v-1M36 12v-1"/>
    </g>
  </g>
</svg>