<svg width="512" height="512" viewBox="0 0 512 512" xmlns="http://www.w3.org/2000/svg">
  <title>LEGO NXT TurboWarp Extension Icon</title>

  <defs>
    <filter id="softShadow" x="-20%" y="-20%" width="140%" height="140%">
      <feGaussianBlur in="SourceAlpha" stdDeviation="4"/>
      <feOffset dx="2" dy="4" result="offsetblur"/>
      <feComponentTransfer>
        <feFuncA type="linear" slope="0.2"/>
      </feComponentTransfer>
      <feMerge>
        <feMergeNode in="offsetblur"/>
        <feMergeNode in="SourceGraphic"/>
      </feMerge>
    </filter>
  </defs>

  <rect x="106" y="40" width="300" height="432" rx="15" ry="15" fill="#D0D0D0" stroke="#999999" stroke-width="4" filter="url(#softShadow)"/>

  <g transform="translate(0, -10)">
      <rect x="136" y="80" width="240" height="140" fill="#B0B0B0" stroke="#888" stroke-width="2"/>
      <rect x="151" y="95" width="210" height="110" fill="#9ACD32"/>
      
      <path d="M 265 105 L 225 155 L 255 155 L 240 195 L 295 140 L 265 140 Z" fill="#FFFF00" stroke="#FFA500" stroke-width="2" stroke-linejoin="round"/>
  </g>

  <g transform="translate(0, 20)">
      <rect x="216" y="240" width="80" height="80" rx="12" ry="12" fill="#FF8C00" stroke="#CC7000" stroke-width="3"/>
      
      <path d="M 195 260 L 155 280 L 195 300 Z" fill="#A0A0A0" stroke="#777" stroke-width="3" stroke-linejoin="round"/>
      
      <path d="M 317 260 L 357 280 L 317 300 Z" fill="#A0A0A0" stroke="#777" stroke-width="3" stroke-linejoin="round"/>
      
      <rect x="216" y="340" width="80" height="40" rx="8" ry="8" fill="#555555" stroke="#333" stroke-width="3"/>
  </g>

  <g stroke="#999" stroke-width="5" stroke-linecap="round">
    <line x1="160" y1="430" x2="160" y2="455"/>
    <line x1="256" y1="430" x2="256" y2="455"/>
    <line x1="352" y1="430" x2="352" y2="455"/>
  </g>

</svg>